HIERARCHY
ROOT Hips
{
	OFFSET 0.00000 0.00000 0.00000
	CHANNELS 6 Xposition Yposition Zposition Zrotation Yrotation Xrotation 
	JOINT LHipJoint
	{
		OFFSET 0 0 0
		CHANNELS 3 Zrotation Yrotation Xrotation
		JOINT LeftUpLeg
		{
			OFFSET 1.54859 -1.61379 0.86856
			CHANNELS 3 Zrotation Yrotation Xrotation
			JOINT LeftLeg
			{
				OFFSET 2.25087 -6.18423 0.00000
				CHANNELS 3 Zrotation Yrotation Xrotation
				JOINT LeftFoot
				{
					OFFSET 2.40328 -6.60297 0.00000
					CHANNELS 3 Zrotation Yrotation Xrotation
					JOINT LeftToeBase
					{
						OFFSET 0.17435 -0.47901 2.02453
						CHANNELS 3 Zrotation Yrotation Xrotation
						End Site
						{
							OFFSET 0.00000 -0.00000 1.04844
						}
					}
				}
			}
		}
	}
	JOINT RHipJoint
	{
		OFFSET 0 0 0
		CHANNELS 3 Zrotation Yrotation Xrotation
		JOINT RightUpLeg
		{
			OFFSET -1.54669 -1.61379 0.86856
			CHANNELS 3 Zrotation Yrotation Xrotation
			JOINT RightLeg
			{
				OFFSET -2.28132 -6.26789 0.00000
				CHANNELS 3 Zrotation Yrotation Xrotation
				JOINT RightFoot
				{
					OFFSET -2.51636 -6.91365 0.00000
					CHANNELS 3 Zrotation Yrotation Xrotation
					JOINT RightToeBase
					{
						OFFSET -0.15124 -0.41552 2.21090
						CHANNELS 3 Zrotation Yrotation Xrotation
						End Site
						{
							OFFSET -0.00000 -0.00000 1.13399
						}
					}
				}
			}
		}
	}
	JOINT LowerBack
	{
		OFFSET 0 0 0
		CHANNELS 3 Zrotation Yrotation Xrotation
		JOINT Spine
		{
			OFFSET -0.04287 2.26161 -0.25690
			CHANNELS 3 Zrotation Yrotation Xrotation
			JOINT Spine1
			{
				OFFSET 0.02248 2.28395 -0.10140
				CHANNELS 3 Zrotation Yrotation Xrotation
				JOINT Neck
				{
					OFFSET 0 0 0
					CHANNELS 3 Zrotation Yrotation Xrotation
					JOINT Neck1
					{
						OFFSET -0.11644 1.38496 0.11345
						CHANNELS 3 Zrotation Yrotation Xrotation
						JOINT Head
						{
							OFFSET 0.29383 1.36600 0.06642
							CHANNELS 3 Zrotation Yrotation Xrotation
							End Site
							{
								OFFSET 0.11075 1.41395 -0.00294
							}
						}
					}
				}
				JOINT LeftShoulder
				{
					OFFSET 0 0 0
					CHANNELS 3 Zrotation Yrotation Xrotation
					JOINT LeftArm
					{
						OFFSET 3.51628 0.59542 -0.30346
						CHANNELS 3 Zrotation Yrotation Xrotation
						JOINT LeftForeArm
						{
							OFFSET 4.76405 -0.00000 0.00000
							CHANNELS 3 Zrotation Yrotation Xrotation
							JOINT LeftHand
							{
								OFFSET 3.13759 -0.00000 -0.00000
								CHANNELS 3 Zrotation Yrotation Xrotation
								JOINT LeftFingerBase
								{
									OFFSET 0 0 0
									CHANNELS 3 Zrotation Yrotation Xrotation
									JOINT LeftHandIndex1
									{
										OFFSET 0.73226 -0.00000 -0.00000
										CHANNELS 3 Zrotation Yrotation Xrotation
										End Site
										{
											OFFSET 0.59037 -0.00000 -0.00000
										}
									}
								}
								JOINT LThumb
								{
									OFFSET 0 0 0
									CHANNELS 3 Zrotation Yrotation Xrotation
									End Site
									{
										OFFSET 0.59938 -0.00000 0.59938
									}
								}
							}
						}
					}
				}
				JOINT RightShoulder
				{
					OFFSET 0 0 0
					CHANNELS 3 Zrotation Yrotation Xrotation
					JOINT RightArm
					{
						OFFSET -3.30990 0.84213 -0.36430
						CHANNELS 3 Zrotation Yrotation Xrotation
						JOINT RightForeArm
						{
							OFFSET -5.10161 -0.00000 -0.00000
							CHANNELS 3 Zrotation Yrotation Xrotation
							JOINT RightHand
							{
								OFFSET -3.23267 -0.00000 -0.00000
								CHANNELS 3 Zrotation Yrotation Xrotation
								JOINT RightFingerBase
								{
									OFFSET 0 0 0
									CHANNELS 3 Zrotation Yrotation Xrotation
									JOINT RightHandIndex1
									{
										OFFSET -0.70200 -0.00000 -0.00000
										CHANNELS 3 Zrotation Yrotation Xrotation
										End Site
										{
											OFFSET -0.56597 -0.00000 -0.00000
										}
									}
								}
								JOINT RThumb
								{
									OFFSET 0 0 0
									CHANNELS 3 Zrotation Yrotation Xrotation
									End Site
									{
										OFFSET -0.57461 -0.00000 0.57461
									}
								}
							}
						}
					}
				}
			}
		}
	}
}
MOTION
Frames: 14
Frame Time: .0083333
-4.6183 13.3132 -6.3856 -293.5790 81.3145 -287.7330 0.0000 0.0000 0.0000 0.9192 13.0613 -25.5752 8.2989 16.3348 53.6324 0.8780 -15.4876 -18.6349 6.6899 -15.0651 -47.6916 0.0000 0.0000 0.0000 29.4215 8.6357 -65.9133 -21.0694 -19.9726 93.1280 -0.6816 -7.2471 -19.8792 -0.1109 -2.1471 5.9124 -19.0720 0.2138 29.7218 -1.0815 -3.9924 10.2810 9.8880 -1.9436 -2.6167 -15.6120 -11.5769 0.0662 39.6550 -10.8460 -21.2771 16.7527 -6.5953 -1.9470 -0.0000 0.0000 0.0000 -71.5626 -7.8449 19.6916 40.2207 -48.2001 -18.6036 -0.0000 0.0000 -23.1174 38.0443 29.6088 21.1380 -7.1250 0.0000 -0.0000 9.6541 65.5514 4.8131 -0.0000 0.0000 0.0000 80.0044 8.3029 -20.4115 -58.5194 55.9023 -33.1120 0.0000 -0.0000 -56.7756 -20.6007 19.9697 -7.3153 7.1250 -0.0000 -0.0000 5.0065 -8.8296 4.1952
-4.3047 13.3837 -6.3333 -295.2880 80.6880 -289.1510 0.0000 0.0000 0.0000 0.4114 13.3519 -22.9998 7.5775 15.7996 51.0263 0.8305 -15.1026 -18.1334 6.7366 -15.1060 -47.8710 0.0000 0.0000 0.0000 29.0406 9.3359 -66.6787 -20.5766 -19.9920 91.6861 -0.5437 -8.8039 -19.8108 -0.1261 -2.2892 6.3057 -19.2454 -0.2203 28.6251 -1.2464 -4.3706 10.3764 9.8672 -2.2066 -1.9530 -15.7737 -11.3483 -0.1537 39.5060 -10.6160 -20.9093 16.7124 -6.4265 -1.8794 0.0000 -0.0000 0.0000 -71.3094 -9.0130 20.1462 43.3356 -49.9266 -20.9572 -0.0000 0.0000 -23.0348 37.9770 28.7163 20.5598 -7.1250 0.0000 -0.0000 9.7088 64.5302 4.6109 0.0000 -0.0000 0.0000 81.7083 8.5062 -20.4493 -59.9875 56.3066 -34.3307 0.0000 -0.0000 -61.0268 -19.8937 19.4937 -6.8855 7.1250 -0.0000 -0.0000 5.4294 -9.4248 4.4878
-3.9801 13.4677 -6.2749 -295.8360 79.9865 -289.5330 0.0000 0.0000 0.0000 -0.2444 13.2597 -20.1018 6.8204 15.1788 48.1917 0.7278 -14.7339 -17.1873 6.6239 -15.0068 -47.4371 0.0000 0.0000 0.0000 28.4148 9.6548 -67.2093 -20.0607 -19.9999 90.1776 -0.4907 -9.4973 -19.9195 -0.1777 -2.7154 7.4874 -19.8980 -0.4672 28.7367 -0.8451 -5.0474 9.6126 10.8244 -2.4940 -2.5461 -16.3508 -10.8381 0.0520 38.4814 -10.3412 -19.8249 16.3384 -6.1782 -1.7851 0.0000 0.0000 0.0000 -72.3070 -8.6163 20.6943 46.8618 -51.6486 -23.6900 -0.0000 0.0000 -22.7950 38.1848 26.9733 19.6330 -7.1250 0.0000 -0.0000 10.2271 62.6180 4.4019 0.0000 0.0000 0.0000 82.2161 7.7492 -19.8416 -61.2990 56.6463 -35.4241 0.0000 -0.0000 -63.7547 -19.7835 18.6319 -6.5556 7.1250 -0.0000 -0.0000 5.4463 -10.3371 4.4011
-3.6490 13.5550 -6.2170 -297.4910 79.2460 -291.0540 0.0000 0.0000 0.0000 -0.8811 13.0665 -16.9719 6.0513 14.4779 45.1874 0.6117 -14.1687 -16.0036 6.3955 -14.8009 -46.5491 0.0000 0.0000 0.0000 27.7456 10.0342 -67.4219 -19.5347 -19.9948 88.6396 -0.5790 -9.0993 -20.4460 -0.3013 -3.5293 9.7560 -20.0138 -0.8846 28.3623 -0.8821 -5.6386 9.1929 10.9903 -2.7650 -2.6686 -16.5370 -10.5531 -0.4546 37.7725 -10.2648 -18.6538 15.9377 -6.0007 -1.4631 0.0000 0.0000 0.0000 -72.5753 -8.3028 21.4562 50.6018 -53.2353 -26.6555 -0.0000 0.0000 -22.4343 38.2341 24.4253 18.0454 -7.1250 0.0000 -0.0000 10.4961 59.7084 3.7943 0.0000 0.0000 0.0000 83.2684 7.4122 -19.1578 -62.4487 56.9279 -36.3859 0.0000 -0.0000 -64.6655 -20.1832 17.8608 -6.4326 7.1250 -0.0000 -0.0000 5.1382 -11.0908 4.0707
-3.3167 13.6401 -6.1546 -300.1080 78.5018 -293.4110 0.0000 0.0000 0.0000 -1.4630 12.9263 -13.8018 5.2910 13.7042 42.0651 0.5755 -12.7509 -15.1389 6.4618 -14.8614 -46.8082 0.0000 0.0000 0.0000 27.1293 10.6201 -67.5849 -19.0411 -19.9779 87.1954 -0.6394 -8.9242 -20.8855 -0.5562 -4.7771 13.2739 -20.0849 -1.2623 27.7286 -0.8564 -6.1071 8.8108 11.1583 -2.9950 -2.6733 -16.7580 -10.3067 -1.0466 37.1379 -10.1807 -17.6239 15.5981 -5.8227 -1.1538 0.0000 -0.0000 0.0000 -72.9158 -7.7135 22.4553 54.7811 -54.7508 -30.0372 -0.0000 0.0000 -21.8400 38.4002 21.1142 15.9348 -7.1250 0.0000 -0.0000 10.7934 55.8846 2.9065 0.0000 -0.0000 0.0000 84.0884 7.1730 -18.3430 -63.3830 57.1460 -37.1699 0.0000 -0.0000 -64.4700 -20.7599 17.6340 -6.5507 7.1250 -0.0000 -0.0000 4.7449 -11.2545 3.7408
-2.9752 13.7258 -6.0875 -301.8050 77.8540 -294.8000 0.0000 0.0000 0.0000 -2.0335 12.6527 -10.5866 4.5585 12.8687 38.8788 0.5203 -11.1560 -14.0490 6.4864 -14.8837 -46.9039 0.0000 0.0000 0.0000 26.6145 10.8471 -67.8145 -18.6155 -19.9540 85.9489 -0.6138 -9.3386 -21.0114 -0.7292 -5.4561 15.2140 -19.9514 -1.7287 26.8970 -0.8326 -6.5819 8.4842 11.2055 -3.2410 -2.5520 -16.7731 -9.9723 -1.2730 36.2990 -9.9436 -16.8055 15.2011 -5.6167 -1.0540 -0.0000 0.0000 0.0000 -73.1543 -6.9830 23.8097 59.0001 -56.0376 -33.5104 -0.0000 0.0000 -21.0067 39.5169 22.3834 17.4374 -7.1250 0.0000 -0.0000 12.1337 57.6617 3.7985 -0.0000 0.0000 0.0000 84.8435 6.9544 -17.6105 -64.5280 57.4005 -38.1331 0.0000 -0.0000 -63.9164 -21.3605 17.7251 -6.7903 7.1250 -0.0000 -0.0000 4.3552 -11.0801 3.4472
-2.6238 13.8170 -6.0191 -302.2390 77.2021 -295.0060 0.0000 0.0000 0.0000 -2.7575 12.0782 -7.3493 3.8686 11.9834 35.6734 0.4261 -9.4390 -12.4953 6.4051 -14.8098 -46.5868 0.0000 0.0000 0.0000 26.0030 10.6649 -67.9914 -18.2573 -19.9270 84.8987 -0.5718 -9.8384 -21.0701 -0.7748 -5.6201 15.6860 -19.7181 -2.2528 26.1501 -0.8178 -7.1219 8.1573 11.2000 -3.5119 -2.4563 -16.5776 -9.6096 -1.3596 35.1598 -9.6696 -16.0595 14.6583 -5.4104 -1.0525 -0.0000 0.0000 0.0000 -73.2944 -6.0776 25.4998 62.8601 -57.0251 -36.7309 -0.0000 0.0000 -20.0515 40.3126 20.6780 16.6780 -7.1250 0.0000 -0.0000 13.0305 55.8367 3.5073 -0.0000 0.0000 0.0000 85.4091 6.7578 -17.1186 -65.7651 57.6601 -39.1768 0.0000 -0.0000 -63.0534 -21.7027 18.0008 -7.0119 7.1250 -0.0000 -0.0000 4.1491 -10.7433 3.3118
-2.2702 13.9090 -5.9488 -302.7430 76.5117 -295.3040 0.0000 0.0000 0.0000 -3.5519 11.3467 -4.1079 3.2275 11.0545 32.4639 0.3267 -7.4223 -10.6931 6.3542 -14.7630 -46.3870 0.0000 0.0000 0.0000 25.3423 10.4187 -68.0475 -17.9354 -19.8975 83.9535 -0.5698 -10.0014 -21.2073 -0.8887 -6.0089 16.8103 -19.5430 -2.7579 25.4859 -0.7059 -7.6752 7.7943 11.3270 -3.7874 -2.4075 -16.5996 -9.3494 -1.8799 34.1600 -9.5373 -15.1299 14.1758 -5.2285 -0.8431 -0.0000 -0.0000 0.0000 -73.4844 -4.9531 27.3390 66.0817 -57.7240 -39.4444 -0.0000 0.0000 -19.0998 40.4847 21.2162 17.1667 -7.1250 0.0000 -0.0000 13.2666 56.5243 3.7948 -0.0000 -0.0000 0.0000 85.5818 6.7268 -16.6526 -66.8719 57.8791 -40.1131 0.0000 -0.0000 -61.5766 -21.9688 18.3795 -7.2488 7.1250 -0.0000 -0.0000 4.0020 -10.3065 3.2295
-1.9128 13.9939 -5.8764 -303.6940 75.7080 -295.9800 0.0000 0.0000 0.0000 -4.4196 10.7547 -0.9481 2.6419 10.0914 29.2734 0.2222 -5.2936 -8.6182 6.2315 -14.6490 -45.9039 0.0000 0.0000 0.0000 24.7281 10.1556 -68.0979 -17.6717 -19.8695 83.1781 -0.5511 -10.2212 -21.2384 -1.0022 -6.3703 17.8628 -19.9385 -3.2924 24.7888 -0.1478 -8.4254 7.2222 12.2545 -4.1797 -2.3515 -17.4974 -8.7410 -2.0356 33.0189 -8.9719 -14.2072 13.9055 -4.8263 -0.7735 -0.0000 0.0000 0.0000 -74.5508 -3.1113 28.6824 68.9589 -58.2592 -41.8844 -0.0000 0.0000 -17.7714 40.8702 20.6453 16.9667 -7.1250 0.0000 -0.0000 13.6911 55.9375 3.7235 -0.0000 0.0000 0.0000 84.7552 6.7862 -15.4920 -68.0166 58.0928 -41.0838 0.0000 -0.0000 -59.7497 -22.5383 18.7080 -7.5820 7.1250 -0.0000 -0.0000 3.6558 -9.8775 2.9807
-1.5428 14.0817 -5.8032 -304.4740 74.8310 -296.4800 0.0000 0.0000 0.0000 -5.4005 10.1936 2.1367 2.1161 9.1039 26.1209 0.1287 -2.7892 -6.3864 6.1162 -14.5400 -45.4465 0.0000 0.0000 0.0000 24.1427 9.6348 -68.0768 -17.4778 -19.8468 82.6074 -0.5033 -10.6651 -21.2128 -1.0793 -6.6034 18.5455 -19.1062 -3.6607 23.4151 -0.8053 -8.4177 7.3860 11.7064 -4.2180 -1.8067 -16.5502 -8.8294 -2.9117 31.9210 -9.1292 -13.7924 13.1831 -4.8269 -0.6213 -0.0000 0.0000 0.0000 -73.6593 -2.6288 31.5002 70.8107 -58.5619 -43.4618 -0.0000 0.0000 -16.6151 41.4841 20.3709 17.1082 -7.1250 0.0000 -0.0000 14.4005 55.7616 3.8601 -0.0000 0.0000 0.0000 85.6066 7.4117 -16.0570 -70.1477 58.4572 -42.8965 0.0000 -0.0000 -57.5175 -23.3598 18.9941 -8.0018 7.1250 -0.0000 -0.0000 3.1456 -9.4514 2.5904
-1.1662 14.1690 -5.7307 -305.6160 74.0176 -297.3700 0.0000 0.0000 0.0000 -6.3498 9.5026 5.3114 1.6384 8.0683 22.9218 0.0460 0.2815 -4.1624 5.6282 -14.0581 -43.4707 0.0000 0.0000 0.0000 23.7596 8.9314 -67.8637 -17.3347 -19.8288 82.1858 -0.4595 -11.0193 -21.1456 -1.1017 -6.6694 18.7396 -18.6800 -4.0444 22.4025 -0.5809 -8.6853 7.1200 11.6620 -4.3824 -1.5562 -16.7019 -8.4998 -3.0125 30.6916 -8.8097 -13.4252 12.7453 -4.6098 -0.6880 0.0000 -0.0000 0.0000 -73.7658 -1.3014 33.7867 71.8856 -58.7231 -44.3797 -0.0000 0.0000 -15.2785 41.9996 20.0320 17.1410 -7.1250 0.0000 -0.0000 14.9804 55.4811 3.9177 0.0000 -0.0000 0.0000 85.3438 7.4131 -15.5519 -73.0806 58.8902 -45.4020 0.0000 -0.0000 -55.3526 -24.2081 19.1573 -8.3928 7.1250 -0.0000 -0.0000 2.6109 -9.1456 2.1650
-0.7937 14.2568 -5.6536 -307.2440 73.1011 -298.7380 0.0000 0.0000 0.0000 -7.4666 8.5708 8.3869 1.2560 7.1047 20.0260 -0.0469 3.9506 -2.4397 4.5544 -12.8637 -38.8605 0.0000 0.0000 0.0000 23.4428 8.3312 -67.5872 -17.2418 -19.8166 81.9119 -0.3890 -11.5586 -21.0181 -1.0481 -6.5102 18.2720 -18.3172 -4.3882 21.4771 -0.2966 -8.9595 6.7406 11.7338 -4.5323 -1.4504 -16.8621 -7.9230 -2.5733 29.0339 -8.2009 -13.2248 12.2155 -4.2835 -0.9964 0.0000 -0.0000 0.0000 -73.9700 0.5661 35.9863 72.5905 -58.8232 -44.9825 -0.0000 0.0000 -13.8364 42.2962 19.6966 17.0478 -7.1250 0.0000 -0.0000 15.2930 55.1472 3.8770 0.0000 -0.0000 0.0000 84.9019 7.2243 -14.7664 -76.8768 59.3392 -48.6602 0.0000 -0.0000 -53.3590 -24.7525 19.3296 -8.6770 7.1250 -0.0000 -0.0000 2.2756 -8.8736 1.8989
-0.4157 14.3587 -5.5678 -308.5710 71.9695 -299.9250 0.0000 0.0000 0.0000 -9.0168 7.3146 11.3581 0.9805 6.3030 17.6662 -0.1818 7.6562 -1.3653 3.6798 -11.7217 -34.7544 0.0000 0.0000 0.0000 22.9427 7.6268 -67.2628 -17.2599 -19.8190 81.9651 -0.3749 -11.8256 -21.1716 -1.1144 -6.7064 18.8485 -17.9807 -4.6778 20.5490 -0.1230 -9.1630 6.4270 11.6720 -4.6489 -1.2998 -16.6349 -7.7695 -3.5807 27.1657 -8.1682 -12.2301 11.3939 -4.1327 -0.7159 0.0000 0.0000 0.0000 -74.0978 2.6618 38.2451 72.9741 -58.8758 -45.3108 -0.0000 0.0000 -12.3331 42.4098 18.5739 16.2226 -7.1250 0.0000 -0.0000 15.2804 53.7979 3.3660 0.0000 0.0000 0.0000 84.5280 7.4483 -14.2243 -81.0030 59.6919 -52.2164 0.0000 -0.0000 -50.9672 -24.8701 19.5336 -8.8103 7.1250 -0.0000 -0.0000 2.2199 -8.6352 1.8629
-0.0384 14.4197 -5.4977 -309.5070 70.7929 -300.7930 0.0000 0.0000 0.0000 -10.8302 5.8636 13.8939 0.8324 5.8204 16.2641 -0.3167 10.6001 0.1028 3.6576 -11.6903 -34.6450 0.0000 0.0000 0.0000 22.3351 6.8228 -66.5441 -17.1943 -19.8102 81.7716 -0.3755 -11.8856 -21.2445 -1.2540 -7.0993 20.0099 -17.5066 -4.9350 19.6354 -0.0471 -9.2990 6.1655 11.4116 -4.7258 -1.1586 -16.1711 -7.5788 -4.4972 25.1481 -8.0530 -11.3741 10.5254 -3.9693 -0.5255 -0.0000 0.0000 0.0000 -74.0115 4.8195 40.7524 72.5578 -58.8187 -44.9546 -0.0000 0.0000 -11.0841 41.6365 19.6048 16.6088 -7.1250 0.0000 -0.0000 14.5042 54.8702 3.5720 -0.0000 0.0000 0.0000 84.2056 7.8334 -13.5857 -85.6218 59.9274 -56.2093 0.0000 -0.0000 -47.7177 -24.9030 19.5153 -8.8156 7.1250 -0.0000 -0.0000 2.1968 -8.6494 1.8428
